<svg width="980" height="185" viewBox="0 0 980 185" fill="none" xmlns="http://www.w3.org/2000/svg">
<path d="M60.5 184.5L0 0.5V184.5H60.5Z" fill="white"/>
<path d="M129.5 0.5H52.5L89.5 116.5L129.5 0.5Z" fill="white"/>
<path d="M154.5 64L117 184.5H189L154.5 64Z" fill="white"/>
<path d="M216 116.5L179 0.5H254L216 116.5Z" fill="white"/>
<path d="M324 184.5H244L304 0.5H324V184.5Z" fill="white"/>
<path d="M494 0.5H370L433 106L494 0.5Z" fill="white"/>
<path d="M421 165L370 85V184.5H494V85L445 165H421Z" fill="white"/>
<path d="M578 0.5H540V184.5H578V0.5Z" fill="white"/>
<path d="M631 141V40H681C689 40 720 57 717 94C714.6 123.6 692 137.667 681 141H631Z" fill="white"/>
<path d="M799 184.5V0.5H690C713 0.5 772 22 771 94C770.2 151.6 716.667 178.333 690 184.5H799Z" fill="white"/>
<path d="M948 85.8667C995.5 34.5 953.333 6.81482 924 0H980V184H930C992 167.644 973 102.222 948 85.8667Z" fill="white"/>
<path d="M889.5 36H844.5V72.5H893.5C898.5 72.6667 908.7 69.3 909.5 54.5C910.3 39.7 896.5 36 889.5 36Z" fill="white"/>
<path d="M902 108.5H844V149H902C907.167 149 917.8 145 919 129C920.2 113 908.167 108.667 902 108.5Z" fill="white"/>
</svg>
